<?xml version="1.0" encoding="us-ascii" standalone="no"?><svg xmlns="http://www.w3.org/2000/svg" xmlns:xlink="http://www.w3.org/1999/xlink" contentStyleType="text/css" height="1117px" preserveAspectRatio="none" style="width:789px;height:1117px;background:#FFFFFF;" version="1.1" viewBox="0 0 789 1117" width="789px" zoomAndPan="magnify"><defs/><g><!--class Display--><g id="elem_Display"><rect codeLine="2" fill="#FFFFE0" height="48" id="Display" rx="2.5" ry="2.5" style="stroke:#8B0000;stroke-width:0.5;" width="78" x="36.5" y="16"/><ellipse cx="51.5" cy="32" fill="#ADD1B2" rx="11" ry="11" style="stroke:#181818;stroke-width:1.0;"/><path d="M54.2656,27.875 Q54.4219,27.6563 54.6094,27.5469 Q54.7969,27.4375 55.0156,27.4375 Q55.3906,27.4375 55.625,27.7031 Q55.8594,27.9531 55.8594,28.5625 L55.8594,30.0156 Q55.8594,30.625 55.625,30.8906 Q55.3906,31.1563 55.0156,31.1563 Q54.6719,31.1563 54.4688,30.9531 Q54.2656,30.7656 54.1563,30.25 Q54.1094,29.8906 53.9219,29.7031 Q53.5938,29.3281 52.9844,29.1094 Q52.375,28.8906 51.75,28.8906 Q50.9844,28.8906 50.3438,29.2188 Q49.7188,29.5469 49.2188,30.2969 Q48.7344,31.0469 48.7344,32.0781 L48.7344,33.1719 Q48.7344,34.4063 49.625,35.2344 Q50.5156,36.0469 52.1094,36.0469 Q53.0469,36.0469 53.7031,35.7969 Q54.0938,35.6406 54.5156,35.2031 Q54.7813,34.9375 54.9219,34.8594 Q55.0781,34.7813 55.2813,34.7813 Q55.6094,34.7813 55.8594,35.0469 Q56.125,35.2969 56.125,35.6406 Q56.125,35.9844 55.7813,36.3906 Q55.2813,36.9688 54.4844,37.2969 Q53.4063,37.75 52.1094,37.75 Q50.5938,37.75 49.3906,37.125 Q48.4063,36.625 47.7188,35.5625 Q47.0313,34.4844 47.0313,33.2031 L47.0313,32.0469 Q47.0313,30.7188 47.6406,29.5781 Q48.2656,28.4219 49.3594,27.8125 Q50.4531,27.1875 51.6875,27.1875 Q52.4219,27.1875 53.0625,27.3594 Q53.7188,27.5156 54.2656,27.875 Z " fill="#000000"/><text fill="#000000" font-family="sans-serif" font-size="14" lengthAdjust="spacing" textLength="46" x="65.5" y="37.7285">Display</text><line style="stroke:#8B0000;stroke-width:0.5;" x1="37.5" x2="113.5" y1="48" y2="48"/><line style="stroke:#8B0000;stroke-width:0.5;" x1="37.5" x2="113.5" y1="56" y2="56"/></g><!--class Screen--><g id="elem_Screen"><rect fill="#FFFFE0" height="48" id="Screen" rx="2.5" ry="2.5" style="stroke:#8B0000;stroke-width:0.5;" width="77" x="140" y="151"/><ellipse cx="155" cy="167" fill="#ADD1B2" rx="11" ry="11" style="stroke:#181818;stroke-width:1.0;"/><path d="M157.7656,162.875 Q157.9219,162.6563 158.1094,162.5469 Q158.2969,162.4375 158.5156,162.4375 Q158.8906,162.4375 159.125,162.7031 Q159.3594,162.9531 159.3594,163.5625 L159.3594,165.0156 Q159.3594,165.625 159.125,165.8906 Q158.8906,166.1563 158.5156,166.1563 Q158.1719,166.1563 157.9688,165.9531 Q157.7656,165.7656 157.6563,165.25 Q157.6094,164.8906 157.4219,164.7031 Q157.0938,164.3281 156.4844,164.1094 Q155.875,163.8906 155.25,163.8906 Q154.4844,163.8906 153.8438,164.2188 Q153.2188,164.5469 152.7188,165.2969 Q152.2344,166.0469 152.2344,167.0781 L152.2344,168.1719 Q152.2344,169.4063 153.125,170.2344 Q154.0156,171.0469 155.6094,171.0469 Q156.5469,171.0469 157.2031,170.7969 Q157.5938,170.6406 158.0156,170.2031 Q158.2813,169.9375 158.4219,169.8594 Q158.5781,169.7813 158.7813,169.7813 Q159.1094,169.7813 159.3594,170.0469 Q159.625,170.2969 159.625,170.6406 Q159.625,170.9844 159.2813,171.3906 Q158.7813,171.9688 157.9844,172.2969 Q156.9063,172.75 155.6094,172.75 Q154.0938,172.75 152.8906,172.125 Q151.9063,171.625 151.2188,170.5625 Q150.5313,169.4844 150.5313,168.2031 L150.5313,167.0469 Q150.5313,165.7188 151.1406,164.5781 Q151.7656,163.4219 152.8594,162.8125 Q153.9531,162.1875 155.1875,162.1875 Q155.9219,162.1875 156.5625,162.3594 Q157.2188,162.5156 157.7656,162.875 Z " fill="#000000"/><text fill="#000000" font-family="sans-serif" font-size="14" lengthAdjust="spacing" textLength="45" x="169" y="172.7285">Screen</text><line style="stroke:#8B0000;stroke-width:0.5;" x1="141" x2="216" y1="183" y2="183"/><line style="stroke:#8B0000;stroke-width:0.5;" x1="141" x2="216" y1="191" y2="191"/></g><!--class App--><g id="elem_App"><rect fill="#FFFFE0" height="48" id="App" rx="2.5" ry="2.5" style="stroke:#8B0000;stroke-width:0.5;" width="57" x="150" y="16"/><ellipse cx="165" cy="32" fill="#ADD1B2" rx="11" ry="11" style="stroke:#181818;stroke-width:1.0;"/><path d="M167.7656,27.875 Q167.9219,27.6563 168.1094,27.5469 Q168.2969,27.4375 168.5156,27.4375 Q168.8906,27.4375 169.125,27.7031 Q169.3594,27.9531 169.3594,28.5625 L169.3594,30.0156 Q169.3594,30.625 169.125,30.8906 Q168.8906,31.1563 168.5156,31.1563 Q168.1719,31.1563 167.9688,30.9531 Q167.7656,30.7656 167.6563,30.25 Q167.6094,29.8906 167.4219,29.7031 Q167.0938,29.3281 166.4844,29.1094 Q165.875,28.8906 165.25,28.8906 Q164.4844,28.8906 163.8438,29.2188 Q163.2188,29.5469 162.7188,30.2969 Q162.2344,31.0469 162.2344,32.0781 L162.2344,33.1719 Q162.2344,34.4063 163.125,35.2344 Q164.0156,36.0469 165.6094,36.0469 Q166.5469,36.0469 167.2031,35.7969 Q167.5938,35.6406 168.0156,35.2031 Q168.2813,34.9375 168.4219,34.8594 Q168.5781,34.7813 168.7813,34.7813 Q169.1094,34.7813 169.3594,35.0469 Q169.625,35.2969 169.625,35.6406 Q169.625,35.9844 169.2813,36.3906 Q168.7813,36.9688 167.9844,37.2969 Q166.9063,37.75 165.6094,37.75 Q164.0938,37.75 162.8906,37.125 Q161.9063,36.625 161.2188,35.5625 Q160.5313,34.4844 160.5313,33.2031 L160.5313,32.0469 Q160.5313,30.7188 161.1406,29.5781 Q161.7656,28.4219 162.8594,27.8125 Q163.9531,27.1875 165.1875,27.1875 Q165.9219,27.1875 166.5625,27.3594 Q167.2188,27.5156 167.7656,27.875 Z " fill="#000000"/><text fill="#000000" font-family="sans-serif" font-size="14" lengthAdjust="spacing" textLength="25" x="179" y="37.7285">App</text><line style="stroke:#8B0000;stroke-width:0.5;" x1="151" x2="206" y1="48" y2="48"/><line style="stroke:#8B0000;stroke-width:0.5;" x1="151" x2="206" y1="56" y2="56"/></g><!--class ScreenModel--><g id="elem_ScreenModel"><rect fill="#FFFFE0" height="48" id="ScreenModel" rx="2.5" ry="2.5" style="stroke:#8B0000;stroke-width:0.5;" width="115" x="242" y="16"/><ellipse cx="257" cy="32" fill="#ADD1B2" rx="11" ry="11" style="stroke:#181818;stroke-width:1.0;"/><path d="M259.7656,27.875 Q259.9219,27.6563 260.1094,27.5469 Q260.2969,27.4375 260.5156,27.4375 Q260.8906,27.4375 261.125,27.7031 Q261.3594,27.9531 261.3594,28.5625 L261.3594,30.0156 Q261.3594,30.625 261.125,30.8906 Q260.8906,31.1563 260.5156,31.1563 Q260.1719,31.1563 259.9688,30.9531 Q259.7656,30.7656 259.6563,30.25 Q259.6094,29.8906 259.4219,29.7031 Q259.0938,29.3281 258.4844,29.1094 Q257.875,28.8906 257.25,28.8906 Q256.4844,28.8906 255.8438,29.2188 Q255.2188,29.5469 254.7188,30.2969 Q254.2344,31.0469 254.2344,32.0781 L254.2344,33.1719 Q254.2344,34.4063 255.125,35.2344 Q256.0156,36.0469 257.6094,36.0469 Q258.5469,36.0469 259.2031,35.7969 Q259.5938,35.6406 260.0156,35.2031 Q260.2813,34.9375 260.4219,34.8594 Q260.5781,34.7813 260.7813,34.7813 Q261.1094,34.7813 261.3594,35.0469 Q261.625,35.2969 261.625,35.6406 Q261.625,35.9844 261.2813,36.3906 Q260.7813,36.9688 259.9844,37.2969 Q258.9063,37.75 257.6094,37.75 Q256.0938,37.75 254.8906,37.125 Q253.9063,36.625 253.2188,35.5625 Q252.5313,34.4844 252.5313,33.2031 L252.5313,32.0469 Q252.5313,30.7188 253.1406,29.5781 Q253.7656,28.4219 254.8594,27.8125 Q255.9531,27.1875 257.1875,27.1875 Q257.9219,27.1875 258.5625,27.3594 Q259.2188,27.5156 259.7656,27.875 Z " fill="#000000"/><text fill="#000000" font-family="sans-serif" font-size="14" lengthAdjust="spacing" textLength="83" x="271" y="37.7285">ScreenModel</text><line style="stroke:#8B0000;stroke-width:0.5;" x1="243" x2="356" y1="48" y2="48"/><line style="stroke:#8B0000;stroke-width:0.5;" x1="243" x2="356" y1="56" y2="56"/></g><!--class Layer--><g id="elem_Layer"><rect codeLine="19" fill="#FFFFE0" height="83.2188" id="Layer" rx="2.5" ry="2.5" style="stroke:#8B0000;stroke-width:0.5;" width="68" x="144.5" y="456"/><ellipse cx="159.5" cy="472" fill="#ADD1B2" rx="11" ry="11" style="stroke:#181818;stroke-width:1.0;"/><path d="M162.2656,467.875 Q162.4219,467.6563 162.6094,467.5469 Q162.7969,467.4375 163.0156,467.4375 Q163.3906,467.4375 163.625,467.7031 Q163.8594,467.9531 163.8594,468.5625 L163.8594,470.0156 Q163.8594,470.625 163.625,470.8906 Q163.3906,471.1563 163.0156,471.1563 Q162.6719,471.1563 162.4688,470.9531 Q162.2656,470.7656 162.1563,470.25 Q162.1094,469.8906 161.9219,469.7031 Q161.5938,469.3281 160.9844,469.1094 Q160.375,468.8906 159.75,468.8906 Q158.9844,468.8906 158.3438,469.2188 Q157.7188,469.5469 157.2188,470.2969 Q156.7344,471.0469 156.7344,472.0781 L156.7344,473.1719 Q156.7344,474.4063 157.625,475.2344 Q158.5156,476.0469 160.1094,476.0469 Q161.0469,476.0469 161.7031,475.7969 Q162.0938,475.6406 162.5156,475.2031 Q162.7813,474.9375 162.9219,474.8594 Q163.0781,474.7813 163.2813,474.7813 Q163.6094,474.7813 163.8594,475.0469 Q164.125,475.2969 164.125,475.6406 Q164.125,475.9844 163.7813,476.3906 Q163.2813,476.9688 162.4844,477.2969 Q161.4063,477.75 160.1094,477.75 Q158.5938,477.75 157.3906,477.125 Q156.4063,476.625 155.7188,475.5625 Q155.0313,474.4844 155.0313,473.2031 L155.0313,472.0469 Q155.0313,470.7188 155.6406,469.5781 Q156.2656,468.4219 157.3594,467.8125 Q158.4531,467.1875 159.6875,467.1875 Q160.4219,467.1875 161.0625,467.3594 Q161.7188,467.5156 162.2656,467.875 Z " fill="#000000"/><text fill="#000000" font-family="sans-serif" font-size="14" lengthAdjust="spacing" textLength="36" x="173.5" y="477.7285">Layer</text><line style="stroke:#8B0000;stroke-width:0.5;" x1="145.5" x2="211.5" y1="488" y2="488"/><text fill="#000000" font-family="sans-serif" font-size="14" lengthAdjust="spacing" textLength="32" x="150.5" y="506.5332">width</text><text fill="#000000" font-family="sans-serif" font-size="14" lengthAdjust="spacing" textLength="39" x="150.5" y="524.1426">height</text><line style="stroke:#8B0000;stroke-width:0.5;" x1="145.5" x2="211.5" y1="531.2188" y2="531.2188"/></g><!--class Control--><g id="elem_Control"><rect codeLine="29" fill="#FFFFE0" height="171.2656" id="Control" rx="2.5" ry="2.5" style="stroke:#8B0000;stroke-width:0.5;" width="167" x="7" y="813"/><ellipse cx="63.25" cy="829" fill="#ADD1B2" rx="11" ry="11" style="stroke:#181818;stroke-width:1.0;"/><path d="M66.0156,824.875 Q66.1719,824.6563 66.3594,824.5469 Q66.5469,824.4375 66.7656,824.4375 Q67.1406,824.4375 67.375,824.7031 Q67.6094,824.9531 67.6094,825.5625 L67.6094,827.0156 Q67.6094,827.625 67.375,827.8906 Q67.1406,828.1563 66.7656,828.1563 Q66.4219,828.1563 66.2188,827.9531 Q66.0156,827.7656 65.9063,827.25 Q65.8594,826.8906 65.6719,826.7031 Q65.3438,826.3281 64.7344,826.1094 Q64.125,825.8906 63.5,825.8906 Q62.7344,825.8906 62.0938,826.2188 Q61.4688,826.5469 60.9688,827.2969 Q60.4844,828.0469 60.4844,829.0781 L60.4844,830.1719 Q60.4844,831.4063 61.375,832.2344 Q62.2656,833.0469 63.8594,833.0469 Q64.7969,833.0469 65.4531,832.7969 Q65.8438,832.6406 66.2656,832.2031 Q66.5313,831.9375 66.6719,831.8594 Q66.8281,831.7813 67.0313,831.7813 Q67.3594,831.7813 67.6094,832.0469 Q67.875,832.2969 67.875,832.6406 Q67.875,832.9844 67.5313,833.3906 Q67.0313,833.9688 66.2344,834.2969 Q65.1563,834.75 63.8594,834.75 Q62.3438,834.75 61.1406,834.125 Q60.1563,833.625 59.4688,832.5625 Q58.7813,831.4844 58.7813,830.2031 L58.7813,829.0469 Q58.7813,827.7188 59.3906,826.5781 Q60.0156,825.4219 61.1094,824.8125 Q62.2031,824.1875 63.4375,824.1875 Q64.1719,824.1875 64.8125,824.3594 Q65.4688,824.5156 66.0156,824.875 Z " fill="#000000"/><text fill="#000000" font-family="sans-serif" font-size="14" lengthAdjust="spacing" textLength="46" x="83.75" y="834.7285">Control</text><line style="stroke:#8B0000;stroke-width:0.5;" x1="8" x2="173" y1="845" y2="845"/><text fill="#000000" font-family="sans-serif" font-size="14" lengthAdjust="spacing" textLength="6" x="13" y="863.5332">x</text><text fill="#000000" font-family="sans-serif" font-size="14" lengthAdjust="spacing" textLength="7" x="13" y="881.1426">y</text><text fill="#000000" font-family="sans-serif" font-size="14" lengthAdjust="spacing" textLength="32" x="13" y="898.752">width</text><text fill="#000000" font-family="sans-serif" font-size="14" lengthAdjust="spacing" textLength="39" x="13" y="916.3613">height</text><text fill="#000000" font-family="sans-serif" font-size="14" lengthAdjust="spacing" textLength="39" x="13" y="933.9707">zindex</text><text fill="#000000" font-family="sans-serif" font-size="14" lengthAdjust="spacing" textLength="43" x="13" y="951.5801">hidden</text><line style="stroke:#8B0000;stroke-width:0.5;" x1="8" x2="173" y1="958.6563" y2="958.6563"/><text fill="#000000" font-family="sans-serif" font-size="14" lengthAdjust="spacing" textLength="155" x="13" y="977.1895">drawRenderExtensions()</text></g><!--class Group--><g id="elem_Group"><rect codeLine="23" fill="#FFFFE0" height="118.4375" id="Group" rx="2.5" ry="2.5" style="stroke:#8B0000;stroke-width:0.5;" width="72" x="142.5" y="617"/><ellipse cx="157.5" cy="633" fill="#ADD1B2" rx="11" ry="11" style="stroke:#181818;stroke-width:1.0;"/><path d="M160.2656,628.875 Q160.4219,628.6563 160.6094,628.5469 Q160.7969,628.4375 161.0156,628.4375 Q161.3906,628.4375 161.625,628.7031 Q161.8594,628.9531 161.8594,629.5625 L161.8594,631.0156 Q161.8594,631.625 161.625,631.8906 Q161.3906,632.1563 161.0156,632.1563 Q160.6719,632.1563 160.4688,631.9531 Q160.2656,631.7656 160.1563,631.25 Q160.1094,630.8906 159.9219,630.7031 Q159.5938,630.3281 158.9844,630.1094 Q158.375,629.8906 157.75,629.8906 Q156.9844,629.8906 156.3438,630.2188 Q155.7188,630.5469 155.2188,631.2969 Q154.7344,632.0469 154.7344,633.0781 L154.7344,634.1719 Q154.7344,635.4063 155.625,636.2344 Q156.5156,637.0469 158.1094,637.0469 Q159.0469,637.0469 159.7031,636.7969 Q160.0938,636.6406 160.5156,636.2031 Q160.7813,635.9375 160.9219,635.8594 Q161.0781,635.7813 161.2813,635.7813 Q161.6094,635.7813 161.8594,636.0469 Q162.125,636.2969 162.125,636.6406 Q162.125,636.9844 161.7813,637.3906 Q161.2813,637.9688 160.4844,638.2969 Q159.4063,638.75 158.1094,638.75 Q156.5938,638.75 155.3906,638.125 Q154.4063,637.625 153.7188,636.5625 Q153.0313,635.4844 153.0313,634.2031 L153.0313,633.0469 Q153.0313,631.7188 153.6406,630.5781 Q154.2656,629.4219 155.3594,628.8125 Q156.4531,628.1875 157.6875,628.1875 Q158.4219,628.1875 159.0625,628.3594 Q159.7188,628.5156 160.2656,628.875 Z " fill="#000000"/><text fill="#000000" font-family="sans-serif" font-size="14" lengthAdjust="spacing" textLength="40" x="171.5" y="638.7285">Group</text><line style="stroke:#8B0000;stroke-width:0.5;" x1="143.5" x2="213.5" y1="649" y2="649"/><text fill="#000000" font-family="sans-serif" font-size="14" lengthAdjust="spacing" textLength="6" x="148.5" y="667.5332">x</text><text fill="#000000" font-family="sans-serif" font-size="14" lengthAdjust="spacing" textLength="7" x="148.5" y="685.1426">y</text><text fill="#000000" font-family="sans-serif" font-size="14" lengthAdjust="spacing" textLength="39" x="148.5" y="702.752">zindex</text><text fill="#000000" font-family="sans-serif" font-size="14" lengthAdjust="spacing" textLength="43" x="148.5" y="720.3613">hidden</text><line style="stroke:#8B0000;stroke-width:0.5;" x1="143.5" x2="213.5" y1="727.4375" y2="727.4375"/></g><!--class Table--><g id="elem_Table"><rect codeLine="38" fill="#FFFFE0" height="118.4375" id="Table" rx="2.5" ry="2.5" style="stroke:#8B0000;stroke-width:0.5;" width="88" x="249.5" y="617"/><ellipse cx="273.5" cy="633" fill="#ADD1B2" rx="11" ry="11" style="stroke:#181818;stroke-width:1.0;"/><path d="M276.2656,628.875 Q276.4219,628.6563 276.6094,628.5469 Q276.7969,628.4375 277.0156,628.4375 Q277.3906,628.4375 277.625,628.7031 Q277.8594,628.9531 277.8594,629.5625 L277.8594,631.0156 Q277.8594,631.625 277.625,631.8906 Q277.3906,632.1563 277.0156,632.1563 Q276.6719,632.1563 276.4688,631.9531 Q276.2656,631.7656 276.1563,631.25 Q276.1094,630.8906 275.9219,630.7031 Q275.5938,630.3281 274.9844,630.1094 Q274.375,629.8906 273.75,629.8906 Q272.9844,629.8906 272.3438,630.2188 Q271.7188,630.5469 271.2188,631.2969 Q270.7344,632.0469 270.7344,633.0781 L270.7344,634.1719 Q270.7344,635.4063 271.625,636.2344 Q272.5156,637.0469 274.1094,637.0469 Q275.0469,637.0469 275.7031,636.7969 Q276.0938,636.6406 276.5156,636.2031 Q276.7813,635.9375 276.9219,635.8594 Q277.0781,635.7813 277.2813,635.7813 Q277.6094,635.7813 277.8594,636.0469 Q278.125,636.2969 278.125,636.6406 Q278.125,636.9844 277.7813,637.3906 Q277.2813,637.9688 276.4844,638.2969 Q275.4063,638.75 274.1094,638.75 Q272.5938,638.75 271.3906,638.125 Q270.4063,637.625 269.7188,636.5625 Q269.0313,635.4844 269.0313,634.2031 L269.0313,633.0469 Q269.0313,631.7188 269.6406,630.5781 Q270.2656,629.4219 271.3594,628.8125 Q272.4531,628.1875 273.6875,628.1875 Q274.4219,628.1875 275.0625,628.3594 Q275.7188,628.5156 276.2656,628.875 Z " fill="#000000"/><text fill="#000000" font-family="sans-serif" font-size="14" lengthAdjust="spacing" textLength="36" x="289.5" y="638.7285">Table</text><line style="stroke:#8B0000;stroke-width:0.5;" x1="250.5" x2="336.5" y1="649" y2="649"/><text fill="#000000" font-family="sans-serif" font-size="14" lengthAdjust="spacing" textLength="29" x="255.5" y="667.5332">rows</text><text fill="#000000" font-family="sans-serif" font-size="14" lengthAdjust="spacing" textLength="25" x="255.5" y="685.1426">cols</text><text fill="#000000" font-family="sans-serif" font-size="14" lengthAdjust="spacing" textLength="76" x="255.5" y="702.752">visible_rows</text><text fill="#000000" font-family="sans-serif" font-size="14" lengthAdjust="spacing" textLength="72" x="255.5" y="720.3613">visible_cols</text><line style="stroke:#8B0000;stroke-width:0.5;" x1="250.5" x2="336.5" y1="727.4375" y2="727.4375"/></g><!--class RenderExtensions--><g id="elem_RenderExtensions"><rect fill="#FFFFE0" height="48" id="RenderExtensions" rx="2.5" ry="2.5" style="stroke:#8B0000;stroke-width:0.5;" width="147" x="17" y="1062"/><ellipse cx="32" cy="1078" fill="#ADD1B2" rx="11" ry="11" style="stroke:#181818;stroke-width:1.0;"/><path d="M34.7656,1073.875 Q34.9219,1073.6563 35.1094,1073.5469 Q35.2969,1073.4375 35.5156,1073.4375 Q35.8906,1073.4375 36.125,1073.7031 Q36.3594,1073.9531 36.3594,1074.5625 L36.3594,1076.0156 Q36.3594,1076.625 36.125,1076.8906 Q35.8906,1077.1563 35.5156,1077.1563 Q35.1719,1077.1563 34.9688,1076.9531 Q34.7656,1076.7656 34.6563,1076.25 Q34.6094,1075.8906 34.4219,1075.7031 Q34.0938,1075.3281 33.4844,1075.1094 Q32.875,1074.8906 32.25,1074.8906 Q31.4844,1074.8906 30.8438,1075.2188 Q30.2188,1075.5469 29.7188,1076.2969 Q29.2344,1077.0469 29.2344,1078.0781 L29.2344,1079.1719 Q29.2344,1080.4063 30.125,1081.2344 Q31.0156,1082.0469 32.6094,1082.0469 Q33.5469,1082.0469 34.2031,1081.7969 Q34.5938,1081.6406 35.0156,1081.2031 Q35.2813,1080.9375 35.4219,1080.8594 Q35.5781,1080.7813 35.7813,1080.7813 Q36.1094,1080.7813 36.3594,1081.0469 Q36.625,1081.2969 36.625,1081.6406 Q36.625,1081.9844 36.2813,1082.3906 Q35.7813,1082.9688 34.9844,1083.2969 Q33.9063,1083.75 32.6094,1083.75 Q31.0938,1083.75 29.8906,1083.125 Q28.9063,1082.625 28.2188,1081.5625 Q27.5313,1080.4844 27.5313,1079.2031 L27.5313,1078.0469 Q27.5313,1076.7188 28.1406,1075.5781 Q28.7656,1074.4219 29.8594,1073.8125 Q30.9531,1073.1875 32.1875,1073.1875 Q32.9219,1073.1875 33.5625,1073.3594 Q34.2188,1073.5156 34.7656,1073.875 Z " fill="#000000"/><text fill="#000000" font-family="sans-serif" font-size="14" lengthAdjust="spacing" textLength="115" x="46" y="1083.7285">RenderExtensions</text><line style="stroke:#8B0000;stroke-width:0.5;" x1="18" x2="163" y1="1094" y2="1094"/><line style="stroke:#8B0000;stroke-width:0.5;" x1="18" x2="163" y1="1102" y2="1102"/></g><!--class LayerInstanceProperties--><g id="elem_LayerInstanceProperties"><rect codeLine="13" fill="#FFFFE0" height="118.4375" id="LayerInstanceProperties" rx="2.5" ry="2.5" style="stroke:#8B0000;stroke-width:0.5;" width="186" x="215.5" y="277"/><ellipse cx="230.5" cy="293" fill="#ADD1B2" rx="11" ry="11" style="stroke:#181818;stroke-width:1.0;"/><path d="M233.2656,288.875 Q233.4219,288.6563 233.6094,288.5469 Q233.7969,288.4375 234.0156,288.4375 Q234.3906,288.4375 234.625,288.7031 Q234.8594,288.9531 234.8594,289.5625 L234.8594,291.0156 Q234.8594,291.625 234.625,291.8906 Q234.3906,292.1563 234.0156,292.1563 Q233.6719,292.1563 233.4688,291.9531 Q233.2656,291.7656 233.1563,291.25 Q233.1094,290.8906 232.9219,290.7031 Q232.5938,290.3281 231.9844,290.1094 Q231.375,289.8906 230.75,289.8906 Q229.9844,289.8906 229.3438,290.2188 Q228.7188,290.5469 228.2188,291.2969 Q227.7344,292.0469 227.7344,293.0781 L227.7344,294.1719 Q227.7344,295.4063 228.625,296.2344 Q229.5156,297.0469 231.1094,297.0469 Q232.0469,297.0469 232.7031,296.7969 Q233.0938,296.6406 233.5156,296.2031 Q233.7813,295.9375 233.9219,295.8594 Q234.0781,295.7813 234.2813,295.7813 Q234.6094,295.7813 234.8594,296.0469 Q235.125,296.2969 235.125,296.6406 Q235.125,296.9844 234.7813,297.3906 Q234.2813,297.9688 233.4844,298.2969 Q232.4063,298.75 231.1094,298.75 Q229.5938,298.75 228.3906,298.125 Q227.4063,297.625 226.7188,296.5625 Q226.0313,295.4844 226.0313,294.2031 L226.0313,293.0469 Q226.0313,291.7188 226.6406,290.5781 Q227.2656,289.4219 228.3594,288.8125 Q229.4531,288.1875 230.6875,288.1875 Q231.4219,288.1875 232.0625,288.3594 Q232.7188,288.5156 233.2656,288.875 Z " fill="#000000"/><text fill="#000000" font-family="sans-serif" font-size="14" lengthAdjust="spacing" textLength="154" x="244.5" y="298.7285">LayerInstanceProperties</text><line style="stroke:#8B0000;stroke-width:0.5;" x1="216.5" x2="400.5" y1="309" y2="309"/><text fill="#000000" font-family="sans-serif" font-size="14" lengthAdjust="spacing" textLength="6" x="221.5" y="327.5332">x</text><text fill="#000000" font-family="sans-serif" font-size="14" lengthAdjust="spacing" textLength="7" x="221.5" y="345.1426">y</text><text fill="#000000" font-family="sans-serif" font-size="14" lengthAdjust="spacing" textLength="35" x="221.5" y="362.752">alpha</text><text fill="#000000" font-family="sans-serif" font-size="14" lengthAdjust="spacing" textLength="43" x="221.5" y="380.3613">hidden</text><line style="stroke:#8B0000;stroke-width:0.5;" x1="216.5" x2="400.5" y1="387.4375" y2="387.4375"/></g><ellipse cx="178.5" cy="336" fill="#8B0000" rx="2" ry="2" style="stroke:#8B0000;stroke-width:1.0;"/><!--class CellControl--><g id="elem_CellControl"><rect fill="#FFFFE0" height="48" id="CellControl" rx="2.5" ry="2.5" style="stroke:#8B0000;stroke-width:0.5;" width="102" x="242.5" y="874.5"/><ellipse cx="257.5" cy="890.5" fill="#ADD1B2" rx="11" ry="11" style="stroke:#181818;stroke-width:1.0;"/><path d="M260.2656,886.375 Q260.4219,886.1563 260.6094,886.0469 Q260.7969,885.9375 261.0156,885.9375 Q261.3906,885.9375 261.625,886.2031 Q261.8594,886.4531 261.8594,887.0625 L261.8594,888.5156 Q261.8594,889.125 261.625,889.3906 Q261.3906,889.6563 261.0156,889.6563 Q260.6719,889.6563 260.4688,889.4531 Q260.2656,889.2656 260.1563,888.75 Q260.1094,888.3906 259.9219,888.2031 Q259.5938,887.8281 258.9844,887.6094 Q258.375,887.3906 257.75,887.3906 Q256.9844,887.3906 256.3438,887.7188 Q255.7188,888.0469 255.2188,888.7969 Q254.7344,889.5469 254.7344,890.5781 L254.7344,891.6719 Q254.7344,892.9063 255.625,893.7344 Q256.5156,894.5469 258.1094,894.5469 Q259.0469,894.5469 259.7031,894.2969 Q260.0938,894.1406 260.5156,893.7031 Q260.7813,893.4375 260.9219,893.3594 Q261.0781,893.2813 261.2813,893.2813 Q261.6094,893.2813 261.8594,893.5469 Q262.125,893.7969 262.125,894.1406 Q262.125,894.4844 261.7813,894.8906 Q261.2813,895.4688 260.4844,895.7969 Q259.4063,896.25 258.1094,896.25 Q256.5938,896.25 255.3906,895.625 Q254.4063,895.125 253.7188,894.0625 Q253.0313,892.9844 253.0313,891.7031 L253.0313,890.5469 Q253.0313,889.2188 253.6406,888.0781 Q254.2656,886.9219 255.3594,886.3125 Q256.4531,885.6875 257.6875,885.6875 Q258.4219,885.6875 259.0625,885.8594 Q259.7188,886.0156 260.2656,886.375 Z " fill="#000000"/><text fill="#000000" font-family="sans-serif" font-size="14" lengthAdjust="spacing" textLength="70" x="271.5" y="896.2285">CellControl</text><line style="stroke:#8B0000;stroke-width:0.5;" x1="243.5" x2="343.5" y1="906.5" y2="906.5"/><line style="stroke:#8B0000;stroke-width:0.5;" x1="243.5" x2="343.5" y1="914.5" y2="914.5"/></g><!--class Event--><g id="elem_Event"><rect codeLine="45" fill="#FFFFE0" height="65.6094" id="Event" rx="2.5" ry="2.5" style="stroke:#8B0000;stroke-width:0.5;" width="68" x="392.5" y="7"/><ellipse cx="407.5" cy="23" fill="#ADD1B2" rx="11" ry="11" style="stroke:#181818;stroke-width:1.0;"/><path d="M410.2656,18.875 Q410.4219,18.6563 410.6094,18.5469 Q410.7969,18.4375 411.0156,18.4375 Q411.3906,18.4375 411.625,18.7031 Q411.8594,18.9531 411.8594,19.5625 L411.8594,21.0156 Q411.8594,21.625 411.625,21.8906 Q411.3906,22.1563 411.0156,22.1563 Q410.6719,22.1563 410.4688,21.9531 Q410.2656,21.7656 410.1563,21.25 Q410.1094,20.8906 409.9219,20.7031 Q409.5938,20.3281 408.9844,20.1094 Q408.375,19.8906 407.75,19.8906 Q406.9844,19.8906 406.3438,20.2188 Q405.7188,20.5469 405.2188,21.2969 Q404.7344,22.0469 404.7344,23.0781 L404.7344,24.1719 Q404.7344,25.4063 405.625,26.2344 Q406.5156,27.0469 408.1094,27.0469 Q409.0469,27.0469 409.7031,26.7969 Q410.0938,26.6406 410.5156,26.2031 Q410.7813,25.9375 410.9219,25.8594 Q411.0781,25.7813 411.2813,25.7813 Q411.6094,25.7813 411.8594,26.0469 Q412.125,26.2969 412.125,26.6406 Q412.125,26.9844 411.7813,27.3906 Q411.2813,27.9688 410.4844,28.2969 Q409.4063,28.75 408.1094,28.75 Q406.5938,28.75 405.3906,28.125 Q404.4063,27.625 403.7188,26.5625 Q403.0313,25.4844 403.0313,24.2031 L403.0313,23.0469 Q403.0313,21.7188 403.6406,20.5781 Q404.2656,19.4219 405.3594,18.8125 Q406.4531,18.1875 407.6875,18.1875 Q408.4219,18.1875 409.0625,18.3594 Q409.7188,18.5156 410.2656,18.875 Z " fill="#000000"/><text fill="#000000" font-family="sans-serif" font-size="14" lengthAdjust="spacing" textLength="36" x="421.5" y="28.7285">Event</text><line style="stroke:#8B0000;stroke-width:0.5;" x1="393.5" x2="459.5" y1="39" y2="39"/><text fill="#000000" font-family="sans-serif" font-size="14" lengthAdjust="spacing" textLength="50" x="398.5" y="57.5332">payload</text><line style="stroke:#8B0000;stroke-width:0.5;" x1="393.5" x2="459.5" y1="64.6094" y2="64.6094"/></g><!--class Action--><g id="elem_Action"><rect fill="#FFFFE0" height="48" id="Action" rx="2.5" ry="2.5" style="stroke:#8B0000;stroke-width:0.5;" width="71" x="391" y="151"/><ellipse cx="406" cy="167" fill="#ADD1B2" rx="11" ry="11" style="stroke:#181818;stroke-width:1.0;"/><path d="M408.7656,162.875 Q408.9219,162.6563 409.1094,162.5469 Q409.2969,162.4375 409.5156,162.4375 Q409.8906,162.4375 410.125,162.7031 Q410.3594,162.9531 410.3594,163.5625 L410.3594,165.0156 Q410.3594,165.625 410.125,165.8906 Q409.8906,166.1563 409.5156,166.1563 Q409.1719,166.1563 408.9688,165.9531 Q408.7656,165.7656 408.6563,165.25 Q408.6094,164.8906 408.4219,164.7031 Q408.0938,164.3281 407.4844,164.1094 Q406.875,163.8906 406.25,163.8906 Q405.4844,163.8906 404.8438,164.2188 Q404.2188,164.5469 403.7188,165.2969 Q403.2344,166.0469 403.2344,167.0781 L403.2344,168.1719 Q403.2344,169.4063 404.125,170.2344 Q405.0156,171.0469 406.6094,171.0469 Q407.5469,171.0469 408.2031,170.7969 Q408.5938,170.6406 409.0156,170.2031 Q409.2813,169.9375 409.4219,169.8594 Q409.5781,169.7813 409.7813,169.7813 Q410.1094,169.7813 410.3594,170.0469 Q410.625,170.2969 410.625,170.6406 Q410.625,170.9844 410.2813,171.3906 Q409.7813,171.9688 408.9844,172.2969 Q407.9063,172.75 406.6094,172.75 Q405.0938,172.75 403.8906,172.125 Q402.9063,171.625 402.2188,170.5625 Q401.5313,169.4844 401.5313,168.2031 L401.5313,167.0469 Q401.5313,165.7188 402.1406,164.5781 Q402.7656,163.4219 403.8594,162.8125 Q404.9531,162.1875 406.1875,162.1875 Q406.9219,162.1875 407.5625,162.3594 Q408.2188,162.5156 408.7656,162.875 Z " fill="#000000"/><text fill="#000000" font-family="sans-serif" font-size="14" lengthAdjust="spacing" textLength="39" x="420" y="172.7285">Action</text><line style="stroke:#8B0000;stroke-width:0.5;" x1="392" x2="461" y1="183" y2="183"/><line style="stroke:#8B0000;stroke-width:0.5;" x1="392" x2="461" y1="191" y2="191"/></g><!--class EventManager--><g id="elem_EventManager"><rect codeLine="49" fill="#FFFFE0" height="48" id="EventManager" rx="2.5" ry="2.5" style="stroke:#8B0000;stroke-width:0.5;" width="124" x="495.5" y="16"/><ellipse cx="510.5" cy="32" fill="#ADD1B2" rx="11" ry="11" style="stroke:#181818;stroke-width:1.0;"/><path d="M513.2656,27.875 Q513.4219,27.6563 513.6094,27.5469 Q513.7969,27.4375 514.0156,27.4375 Q514.3906,27.4375 514.625,27.7031 Q514.8594,27.9531 514.8594,28.5625 L514.8594,30.0156 Q514.8594,30.625 514.625,30.8906 Q514.3906,31.1563 514.0156,31.1563 Q513.6719,31.1563 513.4688,30.9531 Q513.2656,30.7656 513.1563,30.25 Q513.1094,29.8906 512.9219,29.7031 Q512.5938,29.3281 511.9844,29.1094 Q511.375,28.8906 510.75,28.8906 Q509.9844,28.8906 509.3438,29.2188 Q508.7188,29.5469 508.2188,30.2969 Q507.7344,31.0469 507.7344,32.0781 L507.7344,33.1719 Q507.7344,34.4063 508.625,35.2344 Q509.5156,36.0469 511.1094,36.0469 Q512.0469,36.0469 512.7031,35.7969 Q513.0938,35.6406 513.5156,35.2031 Q513.7813,34.9375 513.9219,34.8594 Q514.0781,34.7813 514.2813,34.7813 Q514.6094,34.7813 514.8594,35.0469 Q515.125,35.2969 515.125,35.6406 Q515.125,35.9844 514.7813,36.3906 Q514.2813,36.9688 513.4844,37.2969 Q512.4063,37.75 511.1094,37.75 Q509.5938,37.75 508.3906,37.125 Q507.4063,36.625 506.7188,35.5625 Q506.0313,34.4844 506.0313,33.2031 L506.0313,32.0469 Q506.0313,30.7188 506.6406,29.5781 Q507.2656,28.4219 508.3594,27.8125 Q509.4531,27.1875 510.6875,27.1875 Q511.4219,27.1875 512.0625,27.3594 Q512.7188,27.5156 513.2656,27.875 Z " fill="#000000"/><text fill="#000000" font-family="sans-serif" font-size="14" lengthAdjust="spacing" textLength="92" x="524.5" y="37.7285">EventManager</text><line style="stroke:#8B0000;stroke-width:0.5;" x1="496.5" x2="618.5" y1="48" y2="48"/><line style="stroke:#8B0000;stroke-width:0.5;" x1="496.5" x2="618.5" y1="56" y2="56"/></g><!--class ActionManager--><g id="elem_ActionManager"><rect codeLine="50" fill="#FFFFE0" height="48" id="ActionManager" rx="2.5" ry="2.5" style="stroke:#8B0000;stroke-width:0.5;" width="127" x="655" y="16"/><ellipse cx="670" cy="32" fill="#ADD1B2" rx="11" ry="11" style="stroke:#181818;stroke-width:1.0;"/><path d="M672.7656,27.875 Q672.9219,27.6563 673.1094,27.5469 Q673.2969,27.4375 673.5156,27.4375 Q673.8906,27.4375 674.125,27.7031 Q674.3594,27.9531 674.3594,28.5625 L674.3594,30.0156 Q674.3594,30.625 674.125,30.8906 Q673.8906,31.1563 673.5156,31.1563 Q673.1719,31.1563 672.9688,30.9531 Q672.7656,30.7656 672.6563,30.25 Q672.6094,29.8906 672.4219,29.7031 Q672.0938,29.3281 671.4844,29.1094 Q670.875,28.8906 670.25,28.8906 Q669.4844,28.8906 668.8438,29.2188 Q668.2188,29.5469 667.7188,30.2969 Q667.2344,31.0469 667.2344,32.0781 L667.2344,33.1719 Q667.2344,34.4063 668.125,35.2344 Q669.0156,36.0469 670.6094,36.0469 Q671.5469,36.0469 672.2031,35.7969 Q672.5938,35.6406 673.0156,35.2031 Q673.2813,34.9375 673.4219,34.8594 Q673.5781,34.7813 673.7813,34.7813 Q674.1094,34.7813 674.3594,35.0469 Q674.625,35.2969 674.625,35.6406 Q674.625,35.9844 674.2813,36.3906 Q673.7813,36.9688 672.9844,37.2969 Q671.9063,37.75 670.6094,37.75 Q669.0938,37.75 667.8906,37.125 Q666.9063,36.625 666.2188,35.5625 Q665.5313,34.4844 665.5313,33.2031 L665.5313,32.0469 Q665.5313,30.7188 666.1406,29.5781 Q666.7656,28.4219 667.8594,27.8125 Q668.9531,27.1875 670.1875,27.1875 Q670.9219,27.1875 671.5625,27.3594 Q672.2188,27.5156 672.7656,27.875 Z " fill="#000000"/><text fill="#000000" font-family="sans-serif" font-size="14" lengthAdjust="spacing" textLength="95" x="684" y="37.7285">ActionManager</text><line style="stroke:#8B0000;stroke-width:0.5;" x1="656" x2="781" y1="48" y2="48"/><line style="stroke:#8B0000;stroke-width:0.5;" x1="656" x2="781" y1="56" y2="56"/></g><!--link Display to Screen--><g id="link_Display_Screen"><path codeLine="3" d="M84.85,64.07 C92.27,80.83 103.68,103.53 117.5,121 C126.12,131.89 137.19,142.28 147.54,150.94 " fill="none" id="Display-Screen" style="stroke:#8B0000;stroke-width:1.0;"/><text fill="#000000" font-family="sans-serif" font-size="13" lengthAdjust="spacing" textLength="51" x="118.5" y="117.4951">activates</text><text fill="#000000" font-family="sans-serif" font-size="13" lengthAdjust="spacing" textLength="7" x="131.7096" y="140.2648">1</text></g><!--link App to Screen--><g id="link_App_Screen"><path codeLine="4" d="M178.5,64.17 C178.5,88.43 178.5,126.32 178.5,150.65 " fill="none" id="App-Screen" style="stroke:#8B0000;stroke-width:1.0;"/><text fill="#000000" font-family="sans-serif" font-size="13" lengthAdjust="spacing" textLength="56" x="179.5" y="117.4951">maintains</text><text fill="#000000" font-family="sans-serif" font-size="13" lengthAdjust="spacing" textLength="22" x="153.8188" y="85.5494">root</text><text fill="#000000" font-family="sans-serif" font-size="13" lengthAdjust="spacing" textLength="20" x="156.0625" y="140.3027">1..*</text></g><!--link ScreenModel to Screen--><g id="link_ScreenModel_Screen"><path codeLine="5" d="M286.18,64.03 C275.92,80.76 260.78,103.46 244.5,121 C234.5,131.77 222.24,142.21 211.02,150.94 " fill="none" id="ScreenModel-Screen" style="stroke:#8B0000;stroke-width:1.0;"/><text fill="#000000" font-family="sans-serif" font-size="13" lengthAdjust="spacing" textLength="33" x="259.5" y="117.4951">starts</text><text fill="#000000" font-family="sans-serif" font-size="13" lengthAdjust="spacing" textLength="7" x="211.4564" y="140.2648">1</text></g><!--link Layer to Control--><g id="link_Layer_Control"><path codeLine="7" d="M144.37,525 C119.44,546.67 87.63,579.73 73.5,617 C49.75,679.61 56.36,755.71 67.59,812.84 " fill="none" id="Layer-Control" style="stroke:#8B0000;stroke-width:1.0;"/><text fill="#000000" font-family="sans-serif" font-size="13" lengthAdjust="spacing" textLength="49" x="74.5" y="681.4951">contains</text><text fill="#000000" font-family="sans-serif" font-size="13" lengthAdjust="spacing" textLength="5" x="60.3269" y="801.9974">*</text></g><!--link Layer to Group--><g id="link_Layer_Group"><path codeLine="8" d="M178.5,539.44 C178.5,562.45 178.5,591.56 178.5,616.9 " fill="none" id="Layer-Group" style="stroke:#8B0000;stroke-width:1.0;"/><text fill="#000000" font-family="sans-serif" font-size="13" lengthAdjust="spacing" textLength="49" x="179.5" y="583.4951">contains</text><text fill="#000000" font-family="sans-serif" font-size="13" lengthAdjust="spacing" textLength="5" x="173.1953" y="606.2121">*</text></g><!--link Group to Control--><g id="link_Group_Control"><path codeLine="9" d="M155.26,735.22 C145.79,758.95 134.66,786.86 124.31,812.77 " fill="none" id="Group-Control" style="stroke:#8B0000;stroke-width:1.0;"/><text fill="#000000" font-family="sans-serif" font-size="13" lengthAdjust="spacing" textLength="49" x="143.5" y="779.4951">contains</text><text fill="#000000" font-family="sans-serif" font-size="13" lengthAdjust="spacing" textLength="5" x="122.0007" y="802.2139">*</text></g><!--link Layer to Table--><g id="link_Layer_Table"><path codeLine="10" d="M212.8,536.51 C221.32,546.73 230.11,558 237.5,569 C247.54,583.95 257.19,600.89 265.56,616.78 " fill="none" id="Layer-Table" style="stroke:#8B0000;stroke-width:1.0;"/><text fill="#000000" font-family="sans-serif" font-size="13" lengthAdjust="spacing" textLength="49" x="249.5" y="583.4951">contains</text><text fill="#000000" font-family="sans-serif" font-size="13" lengthAdjust="spacing" textLength="5" x="256.8501" y="606.0774">*</text></g><!--link Control to RenderExtensions--><g id="link_Control_RenderExtensions"><path codeLine="11" d="M90.5,984.11 C90.5,1012.58 90.5,1042.09 90.5,1061.78 " fill="none" id="Control-RenderExtensions" style="stroke:#8B0000;stroke-width:1.0;"/><text fill="#000000" font-family="sans-serif" font-size="13" lengthAdjust="spacing" textLength="34" x="91.5" y="1028.4951">draws</text><text fill="#000000" font-family="sans-serif" font-size="13" lengthAdjust="spacing" textLength="5" x="84.8594" y="1051.0638">*</text></g><!--link Screen to apoint21--><g id="link_Screen_apoint21"><path d="M178.5,199.12 C178.5,240.46 178.5,323.71 178.5,333.96 " fill="none" id="Screen-apoint21" style="stroke:#8B0000;stroke-width:1.0;"/><text fill="#000000" font-family="sans-serif" font-size="13" lengthAdjust="spacing" textLength="28" x="179.5" y="243.4951">uses</text><text fill="#000000" font-family="sans-serif" font-size="13" lengthAdjust="spacing" textLength="5" x="172.8906" y="220.4872">*</text></g><!--link apoint21 to Layer--><g id="link_apoint21_Layer"><path d="M178.5,338.02 C178.5,346.91 178.5,412.01 178.5,455.96 " fill="none" id="apoint21-Layer" style="stroke:#8B0000;stroke-width:1.0;"/><text fill="#000000" font-family="sans-serif" font-size="13" lengthAdjust="spacing" textLength="20" x="156.8438" y="445.2611">1..*</text></g><!--link apoint21 to LayerInstanceProperties--><g id="link_apoint21_LayerInstanceProperties"><path d="M180.53,336 C192.03,336 203.53,336 215.02,336 " fill="none" id="apoint21-LayerInstanceProperties" style="stroke:#8B0000;stroke-width:1.0;stroke-dasharray:7.0,7.0;"/></g><!--link Table to CellControl--><g id="link_Table_CellControl"><path codeLine="44" d="M293.5,735.22 C293.5,780.77 293.5,841.7 293.5,874.41 " fill="none" id="Table-CellControl" style="stroke:#8B0000;stroke-width:1.0;"/></g><!--link Event to Action--><g id="link_Event_Action"><path codeLine="48" d="M426.5,73.2 C426.5,97.18 426.5,129.37 426.5,150.85 " fill="none" id="Event-Action" style="stroke:#8B0000;stroke-width:1.0;"/><text fill="#000000" font-family="sans-serif" font-size="13" lengthAdjust="spacing" textLength="43" x="427.5" y="117.4951">triggers</text></g><!--SRC=[ZL9VIyCm47_FfuXzseOh-EhRc4C41wA-IsoEzJ1BIf9sgxBlxhMNZcedM6XwlT-VorroXROmjGOPFj3cME-DA8mAGTvXg8ngHVhAvL9cDvbyAJo0bRTI5H4R5I68LLN9p3iNCoRb-MB4sokqaTuWEBLr6ip4BKJbuq2HsM9izQXQyCIf0nNZdmuaPErizCuGLhXKv0T-xrrTZL5E_5FzgjuDZD51aF1di1hyvXZ11dGs45LxTGXYncrSyyxdCiyvUh3KfYtWoRiAV4HgXsVz1og_XAJdsAzjlofJbQgFIjGQh3YDBPBWW3gMJ0BSbV5CulQdhfz8dHmlsGujJpMJ8fUDkh2RokzXpURd6Zndhk0TpQyB2cSuQ30WuMzdP4ZqZ9DWDHt96en9sqt6cmPiJCQLQerJcWIS9S6ARh3hBb_qkDk13sFPLbb5kPHYQifz0m00]--></g></svg>